<svg width="1440" height="1023" viewBox="0 0 1440 1023" fill="none" xmlns="http://www.w3.org/2000/svg">
<g opacity="0.73" clip-path="url(#clip0)">
<path d="M251.233 139.325C243.346 157.301 216.42 170.434 197.398 165.581C178.377 160.729 151.451 173.861 143.564 191.838C135.677 209.815 108.751 222.947 89.7298 218.095C70.7085 213.242 43.7822 226.375 35.8955 244.352C28.0088 262.328 1.08251 275.461 -17.9388 270.608C-36.9601 265.756 -63.8864 278.888 -71.7731 296.865" stroke="#25408F" stroke-width="5"/>
</g>
<g opacity="0.86" clip-path="url(#clip1)">
<path d="M864.679 9.20808C864.443 28.8372 844.789 51.447 825.384 54.4123C805.978 57.3776 786.324 79.9873 786.088 99.6165C785.852 119.246 766.198 141.855 746.793 144.821C727.387 147.786 707.733 170.396 707.497 190.025C707.262 209.654 687.607 232.264 668.202 235.229C648.797 238.194 629.142 260.804 628.906 280.433" stroke="#25408F" stroke-width="5"/>
</g>
<g opacity="0.75" clip-path="url(#clip2)">
<path d="M1050.86 286.021C1037.4 271.738 1035.83 241.82 1047.73 226.207C1059.63 210.594 1058.06 180.677 1044.59 166.393C1031.13 152.11 1029.56 122.192 1041.46 106.579C1053.36 90.9661 1051.79 61.0489 1038.32 46.7652C1024.86 32.4814 1023.29 2.56421 1035.19 -13.0489C1047.09 -28.662 1045.52 -58.5792 1032.05 -72.863" stroke="#25408F" stroke-width="5"/>
</g>
<g opacity="0.98" clip-path="url(#clip3)">
<path d="M331.671 584.342C350.66 589.319 367.843 613.859 366.026 633.406C364.209 652.952 381.392 677.492 400.381 682.47C419.37 687.447 436.554 711.988 434.736 731.534C432.919 751.08 450.102 775.62 469.091 780.598C488.08 785.575 505.264 810.116 503.446 829.662C501.629 849.208 518.812 873.749 537.801 878.726" stroke="#25408F" stroke-width="5"/>
</g>
<g opacity="0.75" clip-path="url(#clip4)">
<path d="M653.088 376.754C666.303 391.27 667.348 421.21 655.179 436.613C643.009 452.016 644.054 481.956 657.269 496.473C670.484 510.99 671.529 540.93 659.359 556.333C647.189 571.736 648.235 601.676 661.45 616.192C674.664 630.709 675.71 660.649 663.54 676.052C651.37 691.455 652.416 721.395 665.63 735.912" stroke="#25408F" stroke-width="5"/>
</g>
<g opacity="0.92" clip-path="url(#clip5)">
<path d="M1274.79 551.347C1264.48 568.051 1235.99 577.309 1217.83 569.856C1199.67 562.404 1171.18 571.661 1160.86 588.365C1150.55 605.069 1122.06 614.327 1103.9 606.874C1085.74 599.421 1057.25 608.679 1046.94 625.383C1036.62 642.087 1008.13 651.345 989.971 643.892C971.81 636.439 943.318 645.697 933.006 662.401" stroke="#25408F" stroke-width="5"/>
</g>
<g opacity="0.77" clip-path="url(#clip6)">
<path d="M392.467 889.588C400.86 907.334 393.106 936.271 376.964 947.443C360.823 958.615 353.069 987.552 361.462 1005.3C369.855 1023.04 362.101 1051.98 345.96 1063.15C329.818 1074.33 322.065 1103.26 330.458 1121.01C338.851 1138.75 331.097 1167.69 314.955 1178.86C298.814 1190.04 291.06 1218.97 299.453 1236.72" stroke="#25408F" stroke-width="5"/>
</g>
<g opacity="0.91" clip-path="url(#clip7)">
<path d="M788.003 693.284C781.189 674.874 791.435 646.722 808.489 637C825.543 627.277 835.789 599.126 828.975 580.716C822.16 562.306 832.406 534.154 849.46 524.432C866.514 514.709 876.76 486.558 869.946 468.148C863.131 449.738 873.378 421.586 890.432 411.864C907.485 402.141 917.732 373.99 910.917 355.58" stroke="#25408F" stroke-width="5"/>
</g>
<g opacity="0.71" clip-path="url(#clip8)">
<path d="M1158.31 859.193C1141.09 849.769 1130.35 821.801 1136.85 803.275C1143.34 784.749 1132.6 756.78 1115.38 747.357C1098.16 737.934 1087.43 709.965 1093.92 691.439C1100.41 672.913 1089.67 644.945 1072.45 635.521C1055.23 626.098 1044.5 598.129 1050.99 579.603C1057.48 561.077 1046.74 533.109 1029.52 523.685" stroke="#25408F" stroke-width="5"/>
</g>
<g clip-path="url(#clip9)">
<path d="M213 601.301C225.7 616.27 225.7 646.229 213 661.198C200.3 676.166 200.3 706.125 213 721.094C225.7 736.063 225.7 766.021 213 780.99C200.3 795.959 200.3 825.917 213 840.886C225.7 855.855 225.7 885.813 213 900.782C200.3 915.751 200.3 945.709 213 960.678" stroke="#F15D6F" stroke-width="5"/>
</g>
<g clip-path="url(#clip10)">
<path d="M1189 70.3013C1201.7 85.2703 1201.7 115.229 1189 130.198C1176.3 145.166 1176.3 175.125 1189 190.094C1201.7 205.063 1201.7 235.021 1189 249.99C1176.3 264.959 1176.3 294.917 1189 309.886C1201.7 324.855 1201.7 354.813 1189 369.782C1176.3 384.751 1176.3 414.709 1189 429.678" stroke="#F15D6F" stroke-width="5"/>
</g>
<path opacity="0.79" d="M4.36959 -8.17251C7.32892 -9.13405 9.72897 -5.35225 11.3827 -0.26254C14.6804 5.32845 13.3177 9.29743 10.3583 10.259C7.39901 11.2205 3.65937 7.87397 2.00563 2.78426C0.351878 -2.30545 1.41026 -7.21096 4.36959 -8.17251Z" fill="#F15D6F"/>
<path opacity="0.7" d="M255.295 201.746C254.677 203.899 251.454 203.809 247.75 202.747C243.085 202.464 241.264 200.053 241.882 197.899C242.499 195.746 246.003 194.861 249.707 195.923C253.41 196.985 255.912 199.592 255.295 201.746Z" fill="#F15D6F"/>
<path opacity="0.81" d="M497.431 0.31601C500.34 -1.1026 503.359 2.44481 505.799 7.44723C510.004 12.728 509.175 17.0128 506.266 18.4314C503.358 19.85 499.022 16.9447 496.582 11.9423C494.142 6.93989 494.522 1.73462 497.431 0.31601Z" fill="#F15D6F"/>
<path opacity="0.8" d="M676.422 0.0791884C677.241 1.83556 675.085 3.60623 672.065 5.01483C668.859 7.47767 666.302 6.93656 665.483 5.18019C664.664 3.42382 666.449 0.858102 669.47 -0.550501C672.49 -1.9591 675.603 -1.67718 676.422 0.0791884Z" fill="#F15D6F"/>
<path opacity="0.79" d="M947.932 121.103C945.381 118.462 948.15 113.96 952.693 109.574C956.917 103.184 961.831 102.576 964.382 105.218C966.932 107.859 965.318 113.556 960.775 117.943C956.232 122.33 950.482 123.745 947.932 121.103Z" fill="#F15D6F"/>
<path opacity="0.95" d="M1246.99 171.326C1248.88 173.025 1247.19 176.263 1244.27 179.508C1241.66 184.118 1238.3 184.774 1236.42 183.075C1234.53 181.377 1235.37 177.37 1238.29 174.125C1241.21 170.881 1245.11 169.628 1246.99 171.326Z" fill="#F15D6F"/>
<path opacity="0.99" d="M227.033 270.516C225.404 272.6 221.915 271.076 218.331 268.275C213.35 265.903 212.423 262.458 214.052 260.374C215.68 258.29 219.906 258.87 223.49 261.671C227.075 264.471 228.661 268.431 227.033 270.516Z" fill="#F15D6F"/>
<path opacity="0.76" d="M480.983 238.43C481.675 236.299 484.894 236.502 488.558 237.693C493.211 238.138 494.946 240.611 494.254 242.742C493.561 244.873 490.029 245.635 486.365 244.444C482.7 243.253 480.291 240.561 480.983 238.43Z" fill="#F15D6F"/>
<path opacity="0.76" d="M828.78 340.909C829.33 339.108 832.038 339.231 835.136 340.178C839.053 340.484 840.548 342.538 839.997 344.339C839.446 346.14 836.489 346.832 833.391 345.885C830.294 344.938 828.229 342.71 828.78 340.909Z" fill="#F15D6F"/>
<path opacity="0.7" d="M1019.24 196.043C1020.77 192.744 1025.93 193.707 1031.6 196.354C1039.02 197.993 1041.32 202.326 1039.79 205.626C1038.25 208.925 1032.4 209.455 1026.72 206.809C1021.05 204.162 1017.7 199.343 1019.24 196.043Z" fill="#F15D6F"/>
<path opacity="0.75" d="M1290.46 392.374C1290.46 390.041 1293.72 389.205 1297.73 389.205C1302.48 388.149 1305 390.041 1305 392.374C1305 394.708 1301.75 396.6 1297.73 396.6C1293.72 396.6 1290.46 394.708 1290.46 392.374Z" fill="#F15D6F"/>
<path opacity="0.87" d="M240.381 554.845C239.193 553.325 240.888 551.124 243.502 549.082C246.06 545.975 248.662 545.927 249.849 547.447C251.037 548.968 249.88 551.856 247.266 553.899C244.651 555.942 241.569 556.365 240.381 554.845Z" fill="#F15D6F"/>
<path opacity="0.93" d="M582.926 417.8C585.28 420.154 582.84 424.279 578.791 428.328C575.063 434.188 570.617 434.817 568.263 432.463C565.909 430.109 567.282 424.918 571.331 420.869C575.381 416.819 580.572 415.446 582.926 417.8Z" fill="#F15D6F"/>
<path opacity="0.91" d="M732.874 458.497C730.561 458.989 729.047 455.94 728.202 451.961C726.153 447.474 727.499 444.582 729.812 444.09C732.125 443.599 734.686 446.425 735.531 450.403C736.377 454.382 735.187 458.006 732.874 458.497Z" fill="#F15D6F"/>
<path opacity="0.92" d="M1052.88 533.365C1051.38 531.053 1054.07 528.132 1058.04 525.55C1062.07 521.446 1065.78 521.702 1067.28 524.014C1068.78 526.326 1066.78 530.293 1062.8 532.876C1058.82 535.458 1054.38 535.677 1052.88 533.365Z" fill="#F15D6F"/>
<path opacity="0.7" d="M1243.13 612.977C1243.45 615.632 1239.87 617.037 1235.3 617.598C1230.04 619.463 1226.92 617.662 1226.59 615.007C1226.26 612.352 1229.7 609.746 1234.27 609.185C1238.83 608.624 1242.8 610.322 1243.13 612.977Z" fill="#F15D6F"/>
<path d="M117.416 650.021C117.966 653.14 113.815 655.022 108.452 655.968C102.352 658.499 98.5453 656.564 97.9955 653.446C97.4457 650.328 101.347 647.033 106.71 646.088C112.073 645.142 116.866 646.903 117.416 650.021Z" fill="#F15D6F"/>
<path opacity="0.83" d="M561.72 733.493C562.168 731.552 565.035 731.481 568.374 732.252C572.531 732.286 574.26 734.343 573.812 736.285C573.363 738.226 570.293 739.175 566.954 738.404C563.615 737.633 561.271 735.434 561.72 733.493Z" fill="#F15D6F"/>
<path opacity="0.79" d="M825.334 623.167C827.558 622.734 828.957 625.68 829.7 629.505C831.587 633.838 830.251 636.585 828.027 637.017C825.803 637.45 823.397 634.699 822.654 630.875C821.91 627.05 823.11 623.599 825.334 623.167Z" fill="#F15D6F"/>
<path opacity="0.86" d="M910.354 763.558C909.527 766.104 905.682 765.862 901.305 764.439C895.748 763.908 893.676 760.953 894.503 758.408C895.33 755.863 899.548 754.953 903.926 756.375C908.303 757.797 911.181 761.013 910.354 763.558Z" fill="#F15D6F"/>
<path opacity="0.85" d="M1367.11 653.085C1368.73 654.397 1367.48 657.125 1365.22 659.912C1363.28 663.805 1360.55 664.488 1358.93 663.176C1357.31 661.864 1357.83 658.541 1360.09 655.755C1362.34 652.968 1365.48 651.773 1367.11 653.085Z" fill="#F15D6F"/>
<path opacity="0.74" d="M24.5922 852.49C22.4163 851.13 23.533 847.61 25.8714 843.868C27.6551 838.821 30.8844 837.579 33.0603 838.938C35.2361 840.298 35.1043 844.434 32.7659 848.176C30.4275 851.918 26.768 853.85 24.5922 852.49Z" fill="#F15D6F"/>
<path opacity="0.75" d="M477.292 881.319C480.226 883.082 478.818 887.803 475.786 892.849C473.525 899.622 469.246 901.355 466.312 899.592C463.378 897.829 463.458 892.309 466.49 887.263C469.522 882.218 474.358 879.556 477.292 881.319Z" fill="#F15D6F"/>
<path opacity="0.87" d="M772.077 1001.84C770.467 1003.4 767.723 1001.71 765.049 998.94C761.154 996.366 760.784 993.37 762.394 991.815C764.004 990.26 767.476 991.245 770.15 994.014C772.825 996.783 773.687 1000.29 772.077 1001.84Z" fill="#F15D6F"/>
<path opacity="0.71" d="M979.686 891.005C977.726 892.328 975.18 890.068 972.906 886.696C969.326 883.302 969.49 880.117 971.45 878.794C973.411 877.472 976.844 879.133 979.118 882.505C981.392 885.877 981.647 889.683 979.686 891.005Z" fill="#F15D6F"/>
<path opacity="0.96" d="M1313.43 930.937C1312.04 932.534 1309.32 931.17 1306.57 928.783C1302.69 926.679 1302.1 923.888 1303.49 922.291C1304.87 920.695 1308.23 921.335 1310.97 923.723C1313.72 926.11 1314.82 929.34 1313.43 930.937Z" fill="#F15D6F"/>
<defs>
<clipPath id="clip0">
<rect width="114" height="26" fill="white" transform="translate(259 150) rotate(154)"/>
</clipPath>
<clipPath id="clip1">
<rect width="114" height="26" fill="white" transform="translate(876 16) rotate(131)"/>
</clipPath>
<clipPath id="clip2">
<rect width="114" height="26" fill="white" transform="translate(1038 289) rotate(-93)"/>
</clipPath>
<clipPath id="clip3">
<rect width="114" height="26" fill="white" transform="translate(341 575) rotate(55)"/>
</clipPath>
<clipPath id="clip4">
<rect width="114" height="26" fill="white" transform="translate(666 374) rotate(88)"/>
</clipPath>
<clipPath id="clip5">
<rect width="114" height="26" fill="white" transform="translate(1281 563) rotate(162)"/>
</clipPath>
<clipPath id="clip6">
<rect width="114" height="26" fill="white" transform="translate(405.619 890.729) rotate(105)"/>
</clipPath>
<clipPath id="clip7">
<rect width="114" height="26" fill="white" transform="translate(775 691) rotate(-70)"/>
</clipPath>
<clipPath id="clip8">
<rect width="114" height="26" fill="white" transform="translate(1147 866) rotate(-111)"/>
</clipPath>
<clipPath id="clip9">
<rect width="364" height="26" fill="white" transform="translate(226 599) rotate(90)"/>
</clipPath>
<clipPath id="clip10">
<rect width="364" height="26" fill="white" transform="translate(1202 68) rotate(90)"/>
</clipPath>
</defs>
</svg>
